<?xml version="1.0" encoding="UTF-8" standalone="no"?>
<!-- Created with Inkscape (http://www.inkscape.org/) -->

<svg
   xmlns:dc="http://purl.org/dc/elements/1.1/"
   xmlns:cc="http://creativecommons.org/ns#"
   xmlns:rdf="http://www.w3.org/1999/02/22-rdf-syntax-ns#"
   xmlns:svg="http://www.w3.org/2000/svg"
   xmlns="http://www.w3.org/2000/svg"
   xmlns:sodipodi="http://sodipodi.sourceforge.net/DTD/sodipodi-0.dtd"
   xmlns:inkscape="http://www.inkscape.org/namespaces/inkscape"
   width="140"
   height="140"
   id="svg3220"
   version="1.1"
   inkscape:version="0.48.2 r9819"
   inkscape:export-filename="/home/mping/Desktop/favicons/favicon72.png"
   inkscape:export-xdpi="46.290001"
   inkscape:export-ydpi="46.290001"
   sodipodi:docname="New document 4">
  <defs
     id="defs3222">
    <clipPath
       clipPathUnits="userSpaceOnUse"
       id="clipPath3193">
      <path
         inkscape:connector-curvature="0"
         d="M 0,5952.8 0,0 l 8418.9,0 0,5952.8 -8418.9,0 z"
         id="path3195" />
    </clipPath>
  </defs>
  <sodipodi:namedview
     id="base"
     pagecolor="#ffffff"
     bordercolor="#666666"
     borderopacity="1.0"
     inkscape:pageopacity="0.0"
     inkscape:pageshadow="2"
     inkscape:zoom="0.98994949"
     inkscape:cx="506.44146"
     inkscape:cy="-32.758033"
     inkscape:document-units="px"
     inkscape:current-layer="layer1"
     showgrid="false"
     fit-margin-top="0"
     fit-margin-left="0"
     fit-margin-right="0"
     fit-margin-bottom="0"
     inkscape:window-width="1366"
     inkscape:window-height="744"
     inkscape:window-x="0"
     inkscape:window-y="24"
     inkscape:window-maximized="1" />
  <metadata
     id="metadata3225">
    <rdf:RDF>
      <cc:Work
         rdf:about="">
        <dc:format>image/svg+xml</dc:format>
        <dc:type
           rdf:resource="http://purl.org/dc/dcmitype/StillImage" />
        <dc:title></dc:title>
      </cc:Work>
    </rdf:RDF>
  </metadata>
  <g
     inkscape:label="Layer 1"
     inkscape:groupmode="layer"
     id="layer1"
     transform="translate(-308.06785,-455.42153)">
    <g
       transform="matrix(0.125,0,0,-0.125,-426.92963,1138.8215)"
       id="g3189"
       inkscape:export-filename="/home/mping/Desktop/favicons/favicon.png"
       inkscape:export-xdpi="10.76"
       inkscape:export-ydpi="10.76">
      <g
         id="g3191"
         clip-path="url(#clipPath3193)">
        <path
           inkscape:connector-curvature="0"
           d="m 6539.18,5035.99 c 5.75,-7.4 11.26,-17.5 16.55,-30.15 5.31,-12.72 10.08,-25.91 14.35,-39.56 l 10.22,-32.66 377.76,26.31 c -2.09,7.36 -3.8,14.46 -6.17,22.02 l -43.76,139.8 c -21.58,68.96 -48.04,125.02 -79.35,168.2 -31.32,43.19 -70.57,74.09 -117.7,92.6 -47.14,18.57 -103.94,25.15 -170.46,19.8 -60.24,-4.88 -130.67,-19.6 -210.3,-43.2 l 94.47,-301.79 c 26.94,8.1 49.41,11.23 67.1,9.1 18.51,-2.25 34.28,-12.44 47.29,-30.47"
           style="fill:#79c829;fill-opacity:1;fill-rule:nonzero;stroke:none"
           id="path3197" />
        <path
           inkscape:connector-curvature="0"
           d="m 6598.33,4867.48 c 1.78,-10.48 2.29,-20.19 1.03,-28.78 -1.14,-17.24 -6.81,-31.39 -16.6,-42.69 l 247.72,-242.14 c 47.37,29.81 84.08,62.98 108.71,99.83 28.18,42.1 42.71,90.12 43.65,144.02 0.52,29.62 -2.71,61.75 -8.98,95.91 l -375.53,-26.15"
           style="fill:#fdd804;fill-opacity:1;fill-rule:nonzero;stroke:none"
           id="path3199" />
        <path
           inkscape:connector-curvature="0"
           d="m 6522.53,4760.9 c -2.87,-0.99 -5.51,-2.04 -8.55,-3 l -37.78,-11.83 c -28.32,-8.85 -52.42,-11.86 -72.28,-9.01 -19.88,2.89 -36.52,13.55 -49.93,31.99 -5.8,8.47 -10.99,17.91 -15.56,28.33 -4.59,10.43 -8.89,22.09 -12.96,35.05 l -17.88,57.19 c -11.13,35.53 -14.55,63.65 -10.27,84.51 3.96,16.8 12.96,30.73 27.02,41.83 9.6,7.57 21.91,14.36 36.57,20.38 l -94.65,302.42 c -71.68,-24.45 -132.68,-50.76 -181.52,-79.1 -57.7,-33.52 -100.63,-71.31 -128.77,-113.46 -28.18,-42.07 -42.8,-89.82 -43.91,-143.14 -1.1,-53.34 9.12,-114.47 30.7,-183.43 l 45.06,-143.93 c 21.57,-68.97 47.71,-124.98 78.4,-168.05 30.66,-43.11 69.22,-73.69 115.64,-91.9 46.41,-18.18 102.8,-24.28 169.12,-18.37 66.33,5.92 144.84,23.08 235.53,51.45 71.16,22.28 131.86,45.93 182.73,70.91 l -246.71,241.16"
           style="fill:#21b8f0;fill-opacity:1;fill-rule:nonzero;stroke:none"
           id="path3201" />
      </g>
    </g>
  </g>
</svg>
