<?xml version="1.0" encoding="UTF-8" ?>
<!DOCTYPE svg PUBLIC "-//W3C//DTD SVG 1.1//EN" "http://www.w3.org/Graphics/SVG/1.1/DTD/svg11.dtd">
<svg width="300pt" height="300pt" viewBox="0 0 300 300" version="1.1" xmlns="http://www.w3.org/2000/svg">
<g id="#ffffffff">
</g>
<g id="#000000ff">
<path fill="#000000" opacity="1.00" d=" M 237.36 28.46 C 241.56 26.77 245.61 29.75 248.79 32.18 C 252.01 34.94 255.67 37.37 258.04 40.95 C 257.90 41.33 257.62 42.09 257.48 42.47 C 251.74 49.83 245.44 56.78 240.34 64.62 C 240.61 66.16 241.22 67.61 241.67 69.10 C 233.22 74.23 223.00 74.61 214.03 78.44 C 211.16 79.64 209.31 82.28 206.95 84.19 C 202.05 80.31 199.27 74.21 198.84 68.04 C 198.16 60.67 197.49 53.30 196.80 45.93 C 196.71 43.32 195.16 41.12 194.13 38.81 C 199.43 38.18 203.79 42.35 208.88 42.45 C 219.11 39.46 227.62 32.59 237.36 28.46 M 210.99 47.96 C 210.94 55.88 211.25 63.82 211.98 71.70 C 216.33 70.57 220.57 69.09 224.86 67.76 C 226.84 67.05 229.22 66.06 229.86 63.83 C 231.79 56.45 234.68 49.16 234.58 41.41 C 226.70 43.53 218.85 45.77 210.99 47.96 Z" />
<path fill="#000000" opacity="1.00" d=" M 158.57 45.56 C 162.71 41.56 167.95 37.67 174.07 38.48 C 180.02 39.01 187.71 40.42 189.55 47.13 C 185.76 56.60 181.10 65.69 175.92 74.47 C 177.25 75.69 181.54 77.10 179.36 79.26 C 171.32 87.48 158.65 87.39 149.59 94.06 C 148.80 96.87 149.86 102.32 145.94 102.57 C 141.68 99.81 139.94 94.86 138.96 90.13 C 137.05 78.98 134.93 67.81 131.55 57.01 C 130.78 53.86 126.82 51.36 127.29 48.28 C 133.54 50.69 140.11 52.69 145.65 56.56 C 150.12 64.89 148.89 74.84 149.69 83.97 C 156.81 82.31 164.47 78.19 166.41 70.57 C 167.81 63.95 168.83 57.20 168.78 50.42 C 162.10 52.71 154.98 53.53 147.96 53.97 C 145.24 54.28 142.75 53.02 140.45 51.78 C 146.72 50.78 153.74 50.20 158.57 45.56 Z" />
<path fill="#000000" opacity="1.00" d=" M 64.76 46.96 C 70.93 46.92 77.05 47.86 83.12 48.86 C 88.06 49.80 93.13 50.68 97.58 53.15 C 99.40 58.56 100.43 64.40 99.74 70.11 C 99.62 71.90 98.65 73.41 97.50 74.72 C 83.98 69.68 70.10 61.04 64.76 46.96 Z" />
<path fill="#000000" opacity="1.00" d=" M 96.43 95.34 C 100.94 93.17 105.08 90.09 109.92 88.71 C 114.88 89.17 120.06 90.90 123.74 94.36 C 125.41 97.68 123.19 102.27 119.65 103.42 C 110.79 106.81 101.84 110.02 93.34 114.26 C 94.22 122.51 93.27 130.79 93.23 139.05 C 93.28 140.26 93.15 141.78 94.26 142.61 C 99.96 147.42 107.64 148.56 114.05 151.99 C 119.51 157.32 119.74 165.67 119.77 172.82 C 117.85 174.08 115.47 174.88 113.39 173.44 C 102.65 167.53 99.04 155.14 92.44 145.62 C 91.72 156.74 90.89 167.85 90.30 178.97 C 90.36 200.31 89.30 221.65 87.31 242.89 C 86.44 249.09 86.61 256.28 81.66 260.88 C 79.90 262.87 78.10 259.97 77.22 258.58 C 74.54 253.35 72.54 247.75 71.14 242.05 C 70.17 238.38 71.28 234.67 71.82 231.04 C 73.39 221.74 75.04 212.45 76.53 203.14 C 77.62 192.48 78.32 181.78 79.27 171.12 C 79.84 161.27 79.67 151.39 80.39 141.56 L 81.00 140.48 C 80.83 140.47 80.48 140.46 80.31 140.46 C 68.88 155.93 57.58 171.52 45.28 186.32 C 39.89 192.59 33.41 198.17 25.67 201.29 C 34.85 187.33 44.47 173.67 53.81 159.82 C 61.69 147.34 69.65 134.87 76.69 121.90 C 60.75 127.87 45.24 135.02 28.95 140.05 C 27.40 140.45 25.59 141.37 24.13 140.17 C 20.05 137.78 16.38 134.71 13.17 131.25 C 41.25 120.08 69.79 109.76 96.43 95.34 Z" />
<path fill="#000000" opacity="1.00" d=" M 224.70 94.86 C 229.44 93.64 234.86 93.24 239.22 95.84 C 244.63 98.79 248.79 103.46 252.83 108.01 C 244.09 128.45 235.21 148.84 227.53 169.72 C 224.79 169.47 222.27 168.32 219.84 167.11 C 213.26 169.17 206.69 171.29 200.11 173.37 C 199.61 180.25 199.41 187.15 199.50 194.06 C 220.21 190.15 240.98 186.36 261.98 184.38 C 267.64 183.91 273.33 183.47 279.00 183.85 C 281.08 184.58 282.56 186.35 283.96 187.98 C 287.01 191.92 289.95 196.17 291.03 201.13 C 274.69 201.83 258.34 201.72 241.99 201.78 C 230.57 202.47 219.21 203.88 207.85 205.20 C 205.06 205.49 201.59 206.39 200.71 209.44 C 199.47 214.89 200.11 220.53 200.24 226.06 C 199.78 241.04 199.51 256.03 199.04 271.02 C 199.00 278.41 196.71 285.52 194.51 292.50 C 193.44 292.50 192.38 292.52 191.31 292.54 C 188.53 286.77 186.22 280.54 186.24 274.05 C 186.25 252.48 186.27 230.91 186.23 209.34 C 168.08 213.25 150.69 219.96 132.82 224.95 C 129.75 225.62 126.63 227.64 123.45 226.35 C 119.03 224.73 115.54 221.40 112.47 217.94 C 137.35 211.70 161.96 204.36 186.71 197.60 C 186.85 190.62 186.79 183.63 185.97 176.69 C 176.62 180.09 167.29 183.57 157.91 186.91 C 155.41 184.09 152.85 180.98 152.31 177.12 C 150.44 165.49 149.24 153.75 147.32 142.13 C 144.82 133.97 144.09 124.98 138.73 118.00 C 143.75 117.86 148.81 118.29 153.81 117.79 C 166.66 113.37 179.28 108.17 192.42 104.59 C 203.22 101.46 214.10 98.59 224.70 94.86 M 206.87 109.38 C 204.24 110.30 199.79 111.24 200.26 114.90 C 200.14 120.26 200.27 125.62 200.72 130.97 C 203.99 131.12 207.74 130.43 210.51 132.60 C 212.15 133.73 211.87 135.87 212.17 137.60 C 208.05 138.80 203.96 140.09 199.88 141.42 C 198.74 148.48 198.90 155.64 199.62 162.72 C 205.70 161.65 211.35 158.86 217.59 158.43 C 219.62 154.80 220.73 150.77 221.80 146.77 C 224.96 134.98 228.13 123.15 230.21 111.12 C 230.15 109.15 231.12 105.19 228.09 105.23 C 220.88 105.71 213.88 107.77 206.87 109.38 M 154.70 124.57 C 159.26 134.71 159.07 146.10 160.47 156.93 C 161.39 163.05 161.11 169.40 162.90 175.35 C 169.67 174.31 176.52 172.83 182.72 169.80 C 184.28 168.85 186.52 167.99 186.64 165.87 C 187.30 159.59 187.11 153.22 186.51 146.94 C 181.41 147.88 176.39 150.19 171.11 149.45 C 168.56 149.05 165.45 149.03 164.01 146.48 C 171.44 144.28 178.71 141.40 185.58 137.82 C 186.46 135.36 186.57 132.71 186.33 130.14 C 185.97 125.74 186.00 121.28 185.05 116.94 C 175.02 119.87 165.14 123.37 154.70 124.57 Z" />
</g>
</svg>
